<svg xmlns="http://www.w3.org/2000/svg" viewBox="0 0 520 280" font-family="system-ui,sans-serif">
  <rect width="520" height="280" fill="#fff"/>
  <text x="260" y="24" text-anchor="middle" font-size="13" font-weight="700" fill="#0f2744">AoA  eventos (╦) y actividades (Æ)</text>
  <circle cx="60" cy="140" r="22" fill="#fff" stroke="#0f2744" stroke-width="2"/>
  <text x="60" y="136" text-anchor="middle" font-size="10" font-weight="700">1</text>
  <text x="60" y="148" text-anchor="middle" font-size="8">0|0</text>
  <line x1="82" y1="140" x2="118" y2="100" stroke="#b91c1c" stroke-width="2" marker-end="url(#arr)"/>
  <text x="95" y="108" font-size="9" fill="#b91c1c">A 3</text>
  <circle cx="140" cy="90" r="20" fill="#fff" stroke="#0f2744" stroke-width="2"/>
  <text x="140" y="94" text-anchor="middle" font-size="10" font-weight="700">2</text>
  <line x1="160" y1="90" x2="200" y2="90" stroke="#171717" stroke-width="2"/>
  <text x="175" y="82" font-size="9">B 2</text>
  <circle cx="220" cy="90" r="20" fill="#fff" stroke="#0f2744" stroke-width="2"/>
  <text x="220" y="94" text-anchor="middle" font-size="10">3</text>
  <line x1="82" y1="140" x2="200" y2="180" stroke="#64748b" stroke-width="1.5" stroke-dasharray="5 4"/>
  <text x="120" y="175" font-size="8" fill="#64748b">ficticia 0</text>
  <circle cx="320" cy="140" r="22" fill="#fff" stroke="#b91c1c" stroke-width="2.5"/>
  <text x="320" y="144" text-anchor="middle" font-size="10" font-weight="700">5</text>
  <line x1="240" y1="100" x2="298" y2="128" stroke="#b91c1c" stroke-width="2"/>
  <text x="255" y="118" font-size="9" fill="#b91c1c">D 8</text>
  <circle cx="420" cy="140" r="22" fill="#fff" stroke="#b91c1c" stroke-width="2.5"/>
  <text x="420" y="144" text-anchor="middle" font-size="10" font-weight="700">8</text>
  <line x1="342" y1="140" x2="398" y2="140" stroke="#b91c1c" stroke-width="2"/>
  <text x="365" y="132" font-size="9" fill="#b91c1c">H 4</text>
  <rect x="16" y="220" width="488" height="48" rx="6" fill="#f1f5f9"/>
  <text x="24" y="238" font-size="10" fill="#334155">Ž Rojo = ruta crĒtica</text>
  <text x="24" y="254" font-size="10" fill="#334155">Ž N·mero en flecha = Te (sem) Ę En cĒrculo = ES|EF del evento</text>
  <text x="260" y="238" font-size="10" fill="#334155">Ž Punteado = actividad ficticia (duraci¾n 0)</text>
  <defs>
    <marker id="arr" markerWidth="8" markerHeight="8" refX="6" refY="4" orient="auto">
      <path d="M0,0 L8,4 L0,8 Z" fill="#b91c1c"/>
    </marker>
  </defs>
</svg>
